<mxfile host="app.diagrams.net" agent="Mozilla/5.0 (Windows NT 10.0; Win64; x64) AppleWebKit/537.36 (KHTML, like Gecko) Chrome/135.0.0.0 Safari/537.36" version="26.2.14">
  <diagram name="Page-1" id="O7PLEJD3QVebd0cBMHqg">
    <mxGraphModel dx="676" dy="426" grid="1" gridSize="10" guides="1" tooltips="1" connect="1" arrows="1" fold="1" page="1" pageScale="1" pageWidth="827" pageHeight="1169" math="0" shadow="0">
      <root>
        <mxCell id="0" />
        <mxCell id="1" parent="0" />
        <mxCell id="h9xLMf6bNKH7fD0w6FtV-10" style="edgeStyle=orthogonalEdgeStyle;rounded=0;orthogonalLoop=1;jettySize=auto;html=1;entryX=0.5;entryY=0;entryDx=0;entryDy=0;" edge="1" parent="1" source="h9xLMf6bNKH7fD0w6FtV-1" target="h9xLMf6bNKH7fD0w6FtV-7">
          <mxGeometry relative="1" as="geometry">
            <Array as="points">
              <mxPoint x="240" y="260" />
              <mxPoint x="420" y="260" />
            </Array>
          </mxGeometry>
        </mxCell>
        <mxCell id="h9xLMf6bNKH7fD0w6FtV-17" value="is a" style="edgeLabel;html=1;align=center;verticalAlign=middle;resizable=0;points=[];fontSize=13;" vertex="1" connectable="0" parent="h9xLMf6bNKH7fD0w6FtV-10">
          <mxGeometry x="0.0769" y="1" relative="1" as="geometry">
            <mxPoint as="offset" />
          </mxGeometry>
        </mxCell>
        <mxCell id="h9xLMf6bNKH7fD0w6FtV-20" style="edgeStyle=orthogonalEdgeStyle;rounded=0;orthogonalLoop=1;jettySize=auto;html=1;" edge="1" parent="1" source="h9xLMf6bNKH7fD0w6FtV-1" target="h9xLMf6bNKH7fD0w6FtV-4">
          <mxGeometry relative="1" as="geometry">
            <Array as="points">
              <mxPoint x="210" y="240" />
              <mxPoint x="130" y="240" />
            </Array>
          </mxGeometry>
        </mxCell>
        <mxCell id="h9xLMf6bNKH7fD0w6FtV-26" value="Manage" style="edgeLabel;html=1;align=center;verticalAlign=middle;resizable=0;points=[];fontSize=13;" vertex="1" connectable="0" parent="h9xLMf6bNKH7fD0w6FtV-20">
          <mxGeometry x="0.0326" y="-5" relative="1" as="geometry">
            <mxPoint as="offset" />
          </mxGeometry>
        </mxCell>
        <mxCell id="h9xLMf6bNKH7fD0w6FtV-63" value="1" style="edgeLabel;html=1;align=center;verticalAlign=middle;resizable=0;points=[];" vertex="1" connectable="0" parent="h9xLMf6bNKH7fD0w6FtV-20">
          <mxGeometry x="-0.9242" relative="1" as="geometry">
            <mxPoint as="offset" />
          </mxGeometry>
        </mxCell>
        <mxCell id="h9xLMf6bNKH7fD0w6FtV-64" value="0..*" style="edgeLabel;html=1;align=center;verticalAlign=middle;resizable=0;points=[];" vertex="1" connectable="0" parent="h9xLMf6bNKH7fD0w6FtV-20">
          <mxGeometry x="0.8091" relative="1" as="geometry">
            <mxPoint as="offset" />
          </mxGeometry>
        </mxCell>
        <mxCell id="h9xLMf6bNKH7fD0w6FtV-1" value="Organizer" style="rounded=1;whiteSpace=wrap;html=1;" vertex="1" parent="1">
          <mxGeometry x="180" y="140" width="120" height="60" as="geometry" />
        </mxCell>
        <mxCell id="h9xLMf6bNKH7fD0w6FtV-11" style="edgeStyle=orthogonalEdgeStyle;rounded=0;orthogonalLoop=1;jettySize=auto;html=1;" edge="1" parent="1" source="h9xLMf6bNKH7fD0w6FtV-2">
          <mxGeometry relative="1" as="geometry">
            <mxPoint x="420" y="310" as="targetPoint" />
          </mxGeometry>
        </mxCell>
        <mxCell id="h9xLMf6bNKH7fD0w6FtV-14" value="is a" style="edgeLabel;html=1;align=center;verticalAlign=middle;resizable=0;points=[];" vertex="1" connectable="0" parent="h9xLMf6bNKH7fD0w6FtV-11">
          <mxGeometry x="-0.461" y="1" relative="1" as="geometry">
            <mxPoint as="offset" />
          </mxGeometry>
        </mxCell>
        <mxCell id="h9xLMf6bNKH7fD0w6FtV-22" style="edgeStyle=orthogonalEdgeStyle;rounded=0;orthogonalLoop=1;jettySize=auto;html=1;entryX=0.452;entryY=0.002;entryDx=0;entryDy=0;entryPerimeter=0;" edge="1" parent="1" target="h9xLMf6bNKH7fD0w6FtV-4">
          <mxGeometry relative="1" as="geometry">
            <mxPoint x="104" y="280" as="targetPoint" />
            <mxPoint x="413.708" y="130.3" as="sourcePoint" />
            <Array as="points">
              <mxPoint x="414" y="90" />
              <mxPoint x="104" y="90" />
              <mxPoint x="104" y="285" />
            </Array>
          </mxGeometry>
        </mxCell>
        <mxCell id="h9xLMf6bNKH7fD0w6FtV-23" value="Works at" style="edgeLabel;html=1;align=center;verticalAlign=middle;resizable=0;points=[];" vertex="1" connectable="0" parent="h9xLMf6bNKH7fD0w6FtV-22">
          <mxGeometry x="-0.1002" y="3" relative="1" as="geometry">
            <mxPoint as="offset" />
          </mxGeometry>
        </mxCell>
        <mxCell id="h9xLMf6bNKH7fD0w6FtV-65" value="0..*" style="edgeLabel;html=1;align=center;verticalAlign=middle;resizable=0;points=[];" vertex="1" connectable="0" parent="h9xLMf6bNKH7fD0w6FtV-22">
          <mxGeometry x="0.8909" y="-1" relative="1" as="geometry">
            <mxPoint y="13" as="offset" />
          </mxGeometry>
        </mxCell>
        <mxCell id="h9xLMf6bNKH7fD0w6FtV-66" value="0..*" style="edgeLabel;html=1;align=center;verticalAlign=middle;resizable=0;points=[];" vertex="1" connectable="0" parent="h9xLMf6bNKH7fD0w6FtV-22">
          <mxGeometry x="-0.9596" relative="1" as="geometry">
            <mxPoint as="offset" />
          </mxGeometry>
        </mxCell>
        <mxCell id="h9xLMf6bNKH7fD0w6FtV-2" value="Staff" style="rounded=1;whiteSpace=wrap;html=1;" vertex="1" parent="1">
          <mxGeometry x="360" y="140" width="120" height="60" as="geometry" />
        </mxCell>
        <mxCell id="h9xLMf6bNKH7fD0w6FtV-12" style="edgeStyle=orthogonalEdgeStyle;rounded=0;orthogonalLoop=1;jettySize=auto;html=1;entryX=0.5;entryY=0;entryDx=0;entryDy=0;" edge="1" parent="1" source="h9xLMf6bNKH7fD0w6FtV-3" target="h9xLMf6bNKH7fD0w6FtV-7">
          <mxGeometry relative="1" as="geometry">
            <mxPoint x="420" y="290" as="targetPoint" />
            <Array as="points">
              <mxPoint x="600" y="260" />
              <mxPoint x="421" y="260" />
              <mxPoint x="421" y="300" />
              <mxPoint x="420" y="300" />
            </Array>
          </mxGeometry>
        </mxCell>
        <mxCell id="h9xLMf6bNKH7fD0w6FtV-16" value="is a" style="edgeLabel;html=1;align=center;verticalAlign=middle;resizable=0;points=[];fontSize=13;" vertex="1" connectable="0" parent="h9xLMf6bNKH7fD0w6FtV-12">
          <mxGeometry x="0.1485" y="-1" relative="1" as="geometry">
            <mxPoint as="offset" />
          </mxGeometry>
        </mxCell>
        <mxCell id="h9xLMf6bNKH7fD0w6FtV-3" value="Attendee" style="rounded=1;whiteSpace=wrap;html=1;" vertex="1" parent="1">
          <mxGeometry x="520" y="140" width="120" height="60" as="geometry" />
        </mxCell>
        <mxCell id="h9xLMf6bNKH7fD0w6FtV-40" style="edgeStyle=orthogonalEdgeStyle;rounded=0;orthogonalLoop=1;jettySize=auto;html=1;entryX=0.5;entryY=0;entryDx=0;entryDy=0;" edge="1" parent="1" source="h9xLMf6bNKH7fD0w6FtV-4" target="h9xLMf6bNKH7fD0w6FtV-32">
          <mxGeometry relative="1" as="geometry" />
        </mxCell>
        <mxCell id="h9xLMf6bNKH7fD0w6FtV-41" value="offers" style="edgeLabel;html=1;align=center;verticalAlign=middle;resizable=0;points=[];fontSize=13;" vertex="1" connectable="0" parent="h9xLMf6bNKH7fD0w6FtV-40">
          <mxGeometry x="-0.0421" y="3" relative="1" as="geometry">
            <mxPoint as="offset" />
          </mxGeometry>
        </mxCell>
        <mxCell id="h9xLMf6bNKH7fD0w6FtV-4" value="Event" style="swimlane;fontStyle=1;align=center;verticalAlign=middle;childLayout=stackLayout;horizontal=1;startSize=29;horizontalStack=0;resizeParent=1;resizeParentMax=0;resizeLast=0;collapsible=0;marginBottom=0;html=1;whiteSpace=wrap;" vertex="1" parent="1">
          <mxGeometry x="40" y="285" width="210" height="237" as="geometry" />
        </mxCell>
        <mxCell id="h9xLMf6bNKH7fD0w6FtV-93" value="id:&amp;nbsp;&lt;i&gt;UUID&lt;/i&gt;" style="text;strokeColor=none;fillColor=none;align=left;verticalAlign=top;spacingLeft=4;spacingRight=4;overflow=hidden;rotatable=0;points=[[0,0.5],[1,0.5]];portConstraint=eastwest;whiteSpace=wrap;html=1;" vertex="1" parent="h9xLMf6bNKH7fD0w6FtV-4">
          <mxGeometry y="29" width="210" height="26" as="geometry" />
        </mxCell>
        <mxCell id="h9xLMf6bNKH7fD0w6FtV-94" value="&lt;span style=&quot;text-align: center;&quot;&gt;name: &lt;i&gt;String&lt;/i&gt;&lt;/span&gt;" style="text;strokeColor=none;fillColor=none;align=left;verticalAlign=top;spacingLeft=4;spacingRight=4;overflow=hidden;rotatable=0;points=[[0,0.5],[1,0.5]];portConstraint=eastwest;whiteSpace=wrap;html=1;" vertex="1" parent="h9xLMf6bNKH7fD0w6FtV-4">
          <mxGeometry y="55" width="210" height="26" as="geometry" />
        </mxCell>
        <mxCell id="h9xLMf6bNKH7fD0w6FtV-95" value="start: &lt;i&gt;LocalDateTime&lt;/i&gt;" style="text;strokeColor=none;fillColor=none;align=left;verticalAlign=top;spacingLeft=4;spacingRight=4;overflow=hidden;rotatable=0;points=[[0,0.5],[1,0.5]];portConstraint=eastwest;whiteSpace=wrap;html=1;" vertex="1" parent="h9xLMf6bNKH7fD0w6FtV-4">
          <mxGeometry y="81" width="210" height="26" as="geometry" />
        </mxCell>
        <mxCell id="h9xLMf6bNKH7fD0w6FtV-102" value="end: &lt;i&gt;LocalDateTime&lt;/i&gt;" style="text;strokeColor=none;fillColor=none;align=left;verticalAlign=top;spacingLeft=4;spacingRight=4;overflow=hidden;rotatable=0;points=[[0,0.5],[1,0.5]];portConstraint=eastwest;whiteSpace=wrap;html=1;" vertex="1" parent="h9xLMf6bNKH7fD0w6FtV-4">
          <mxGeometry y="107" width="210" height="26" as="geometry" />
        </mxCell>
        <mxCell id="h9xLMf6bNKH7fD0w6FtV-101" value="venue: &lt;i&gt;String&lt;/i&gt;" style="text;strokeColor=none;fillColor=none;align=left;verticalAlign=top;spacingLeft=4;spacingRight=4;overflow=hidden;rotatable=0;points=[[0,0.5],[1,0.5]];portConstraint=eastwest;whiteSpace=wrap;html=1;" vertex="1" parent="h9xLMf6bNKH7fD0w6FtV-4">
          <mxGeometry y="133" width="210" height="26" as="geometry" />
        </mxCell>
        <mxCell id="h9xLMf6bNKH7fD0w6FtV-97" value="salesStartDate: &lt;i&gt;LocalDateTime&lt;/i&gt;" style="text;strokeColor=none;fillColor=none;align=left;verticalAlign=top;spacingLeft=4;spacingRight=4;overflow=hidden;rotatable=0;points=[[0,0.5],[1,0.5]];portConstraint=eastwest;whiteSpace=wrap;html=1;" vertex="1" parent="h9xLMf6bNKH7fD0w6FtV-4">
          <mxGeometry y="159" width="210" height="26" as="geometry" />
        </mxCell>
        <mxCell id="h9xLMf6bNKH7fD0w6FtV-100" value="salesEndDate:&amp;nbsp;&lt;i&gt;LocalDateTime&lt;/i&gt;" style="text;strokeColor=none;fillColor=none;align=left;verticalAlign=top;spacingLeft=4;spacingRight=4;overflow=hidden;rotatable=0;points=[[0,0.5],[1,0.5]];portConstraint=eastwest;whiteSpace=wrap;html=1;" vertex="1" parent="h9xLMf6bNKH7fD0w6FtV-4">
          <mxGeometry y="185" width="210" height="26" as="geometry" />
        </mxCell>
        <mxCell id="h9xLMf6bNKH7fD0w6FtV-103" value="status: &lt;i&gt;EventStatusEnum&lt;/i&gt;" style="text;strokeColor=none;fillColor=none;align=left;verticalAlign=top;spacingLeft=4;spacingRight=4;overflow=hidden;rotatable=0;points=[[0,0.5],[1,0.5]];portConstraint=eastwest;whiteSpace=wrap;html=1;" vertex="1" parent="h9xLMf6bNKH7fD0w6FtV-4">
          <mxGeometry y="211" width="210" height="26" as="geometry" />
        </mxCell>
        <mxCell id="h9xLMf6bNKH7fD0w6FtV-18" value="" style="edgeStyle=orthogonalEdgeStyle;rounded=0;orthogonalLoop=1;jettySize=auto;html=1;fontSize=13;" edge="1" parent="1" source="h9xLMf6bNKH7fD0w6FtV-7" target="h9xLMf6bNKH7fD0w6FtV-2">
          <mxGeometry relative="1" as="geometry" />
        </mxCell>
        <mxCell id="h9xLMf6bNKH7fD0w6FtV-30" style="edgeStyle=orthogonalEdgeStyle;rounded=0;orthogonalLoop=1;jettySize=auto;html=1;entryX=0.5;entryY=0;entryDx=0;entryDy=0;" edge="1" parent="1" source="h9xLMf6bNKH7fD0w6FtV-7" target="h9xLMf6bNKH7fD0w6FtV-27">
          <mxGeometry relative="1" as="geometry" />
        </mxCell>
        <mxCell id="h9xLMf6bNKH7fD0w6FtV-31" value="purchases" style="edgeLabel;html=1;align=center;verticalAlign=middle;resizable=0;points=[];fontSize=13;" vertex="1" connectable="0" parent="h9xLMf6bNKH7fD0w6FtV-30">
          <mxGeometry x="-0.1375" y="-2" relative="1" as="geometry">
            <mxPoint as="offset" />
          </mxGeometry>
        </mxCell>
        <mxCell id="h9xLMf6bNKH7fD0w6FtV-56" value="0..*" style="edgeLabel;html=1;align=center;verticalAlign=middle;resizable=0;points=[];" vertex="1" connectable="0" parent="h9xLMf6bNKH7fD0w6FtV-30">
          <mxGeometry x="0.765" y="-1" relative="1" as="geometry">
            <mxPoint x="11" y="3" as="offset" />
          </mxGeometry>
        </mxCell>
        <mxCell id="h9xLMf6bNKH7fD0w6FtV-57" value="1" style="edgeLabel;html=1;align=center;verticalAlign=middle;resizable=0;points=[];" vertex="1" connectable="0" parent="h9xLMf6bNKH7fD0w6FtV-30">
          <mxGeometry x="-0.9278" relative="1" as="geometry">
            <mxPoint x="10" y="3" as="offset" />
          </mxGeometry>
        </mxCell>
        <mxCell id="h9xLMf6bNKH7fD0w6FtV-7" value="User" style="swimlane;fontStyle=1;align=center;verticalAlign=middle;childLayout=stackLayout;horizontal=1;startSize=29;horizontalStack=0;resizeParent=1;resizeParentMax=0;resizeLast=0;collapsible=0;marginBottom=0;html=1;whiteSpace=wrap;" vertex="1" parent="1">
          <mxGeometry x="350" y="310" width="140" height="107" as="geometry" />
        </mxCell>
        <mxCell id="h9xLMf6bNKH7fD0w6FtV-78" value="id:&amp;nbsp;&lt;i&gt;UUID&lt;/i&gt;" style="text;strokeColor=none;fillColor=none;align=left;verticalAlign=top;spacingLeft=4;spacingRight=4;overflow=hidden;rotatable=0;points=[[0,0.5],[1,0.5]];portConstraint=eastwest;whiteSpace=wrap;html=1;" vertex="1" parent="h9xLMf6bNKH7fD0w6FtV-7">
          <mxGeometry y="29" width="140" height="26" as="geometry" />
        </mxCell>
        <mxCell id="h9xLMf6bNKH7fD0w6FtV-75" value="&lt;div&gt;name: S&lt;i&gt;tring&lt;/i&gt;&lt;/div&gt;" style="text;strokeColor=none;fillColor=none;align=left;verticalAlign=top;spacingLeft=4;spacingRight=4;overflow=hidden;rotatable=0;points=[[0,0.5],[1,0.5]];portConstraint=eastwest;whiteSpace=wrap;html=1;" vertex="1" parent="h9xLMf6bNKH7fD0w6FtV-7">
          <mxGeometry y="55" width="140" height="26" as="geometry" />
        </mxCell>
        <mxCell id="h9xLMf6bNKH7fD0w6FtV-76" value="email&lt;span style=&quot;color: light-dark(rgb(0, 0, 0), rgb(255, 255, 255)); background-color: transparent;&quot;&gt;: S&lt;i&gt;tring&lt;/i&gt;&lt;/span&gt;" style="text;strokeColor=none;fillColor=none;align=left;verticalAlign=top;spacingLeft=4;spacingRight=4;overflow=hidden;rotatable=0;points=[[0,0.5],[1,0.5]];portConstraint=eastwest;whiteSpace=wrap;html=1;" vertex="1" parent="h9xLMf6bNKH7fD0w6FtV-7">
          <mxGeometry y="81" width="140" height="26" as="geometry" />
        </mxCell>
        <mxCell id="h9xLMf6bNKH7fD0w6FtV-24" style="edgeStyle=orthogonalEdgeStyle;rounded=0;orthogonalLoop=1;jettySize=auto;html=1;entryX=0.215;entryY=0.002;entryDx=0;entryDy=0;exitX=0.5;exitY=0;exitDx=0;exitDy=0;entryPerimeter=0;" edge="1" parent="1" source="h9xLMf6bNKH7fD0w6FtV-3" target="h9xLMf6bNKH7fD0w6FtV-4">
          <mxGeometry relative="1" as="geometry">
            <mxPoint x="544.06" y="110" as="sourcePoint" />
            <mxPoint x="70.00000000000006" y="263.48" as="targetPoint" />
            <Array as="points">
              <mxPoint x="580" y="60" />
              <mxPoint x="70" y="60" />
              <mxPoint x="70" y="285" />
            </Array>
          </mxGeometry>
        </mxCell>
        <mxCell id="h9xLMf6bNKH7fD0w6FtV-25" value="Attends" style="edgeLabel;html=1;align=center;verticalAlign=middle;resizable=0;points=[];" vertex="1" connectable="0" parent="h9xLMf6bNKH7fD0w6FtV-24">
          <mxGeometry x="-0.13" relative="1" as="geometry">
            <mxPoint as="offset" />
          </mxGeometry>
        </mxCell>
        <mxCell id="h9xLMf6bNKH7fD0w6FtV-67" value="0..*" style="edgeLabel;html=1;align=center;verticalAlign=middle;resizable=0;points=[];" vertex="1" connectable="0" parent="h9xLMf6bNKH7fD0w6FtV-24">
          <mxGeometry x="0.8795" relative="1" as="geometry">
            <mxPoint y="30" as="offset" />
          </mxGeometry>
        </mxCell>
        <mxCell id="h9xLMf6bNKH7fD0w6FtV-68" value="0..*" style="edgeLabel;html=1;align=center;verticalAlign=middle;resizable=0;points=[];" vertex="1" connectable="0" parent="h9xLMf6bNKH7fD0w6FtV-24">
          <mxGeometry x="-0.955" y="1" relative="1" as="geometry">
            <mxPoint x="1" as="offset" />
          </mxGeometry>
        </mxCell>
        <mxCell id="h9xLMf6bNKH7fD0w6FtV-52" style="edgeStyle=orthogonalEdgeStyle;rounded=0;orthogonalLoop=1;jettySize=auto;html=1;" edge="1" parent="1" source="h9xLMf6bNKH7fD0w6FtV-27" target="h9xLMf6bNKH7fD0w6FtV-44">
          <mxGeometry relative="1" as="geometry">
            <Array as="points">
              <mxPoint x="400" y="780" />
              <mxPoint x="300" y="780" />
            </Array>
          </mxGeometry>
        </mxCell>
        <mxCell id="h9xLMf6bNKH7fD0w6FtV-53" value="Validated" style="edgeLabel;html=1;align=center;verticalAlign=middle;resizable=0;points=[];fontSize=13;" vertex="1" connectable="0" parent="h9xLMf6bNKH7fD0w6FtV-52">
          <mxGeometry x="-0.2524" y="1" relative="1" as="geometry">
            <mxPoint y="1" as="offset" />
          </mxGeometry>
        </mxCell>
        <mxCell id="h9xLMf6bNKH7fD0w6FtV-61" value="1" style="edgeLabel;html=1;align=center;verticalAlign=middle;resizable=0;points=[];" vertex="1" connectable="0" parent="h9xLMf6bNKH7fD0w6FtV-52">
          <mxGeometry x="-0.9283" relative="1" as="geometry">
            <mxPoint as="offset" />
          </mxGeometry>
        </mxCell>
        <mxCell id="h9xLMf6bNKH7fD0w6FtV-62" value="0..*" style="edgeLabel;html=1;align=center;verticalAlign=middle;resizable=0;points=[];" vertex="1" connectable="0" parent="h9xLMf6bNKH7fD0w6FtV-52">
          <mxGeometry x="0.8214" y="1" relative="1" as="geometry">
            <mxPoint x="9" as="offset" />
          </mxGeometry>
        </mxCell>
        <mxCell id="h9xLMf6bNKH7fD0w6FtV-27" value="Ticket" style="swimlane;fontStyle=1;align=center;verticalAlign=middle;childLayout=stackLayout;horizontal=1;startSize=29;horizontalStack=0;resizeParent=1;resizeParentMax=0;resizeLast=0;collapsible=0;marginBottom=0;html=1;whiteSpace=wrap;" vertex="1" parent="1">
          <mxGeometry x="350" y="620" width="230" height="137" as="geometry" />
        </mxCell>
        <mxCell id="h9xLMf6bNKH7fD0w6FtV-77" value="id:&amp;nbsp;&lt;i&gt;UUID&lt;/i&gt;" style="text;strokeColor=none;fillColor=none;align=left;verticalAlign=top;spacingLeft=4;spacingRight=4;overflow=hidden;rotatable=0;points=[[0,0.5],[1,0.5]];portConstraint=eastwest;whiteSpace=wrap;html=1;" vertex="1" parent="h9xLMf6bNKH7fD0w6FtV-27">
          <mxGeometry y="29" width="230" height="26" as="geometry" />
        </mxCell>
        <mxCell id="h9xLMf6bNKH7fD0w6FtV-72" value="&lt;div&gt;status:&amp;nbsp;&lt;i&gt;TicketStatusEnum&lt;/i&gt;&lt;/div&gt;&lt;div&gt;&lt;br&gt;&lt;/div&gt;" style="text;strokeColor=none;fillColor=none;align=left;verticalAlign=top;spacingLeft=4;spacingRight=4;overflow=hidden;rotatable=0;points=[[0,0.5],[1,0.5]];portConstraint=eastwest;whiteSpace=wrap;html=1;" vertex="1" parent="h9xLMf6bNKH7fD0w6FtV-27">
          <mxGeometry y="55" width="230" height="30" as="geometry" />
        </mxCell>
        <mxCell id="h9xLMf6bNKH7fD0w6FtV-73" value="&lt;div&gt;createdDateTime:&amp;nbsp;&lt;i&gt;LocalDateTime&lt;/i&gt;&lt;/div&gt;&lt;div&gt;&lt;br&gt;&lt;/div&gt;" style="text;strokeColor=none;fillColor=none;align=left;verticalAlign=top;spacingLeft=4;spacingRight=4;overflow=hidden;rotatable=0;points=[[0,0.5],[1,0.5]];portConstraint=eastwest;whiteSpace=wrap;html=1;" vertex="1" parent="h9xLMf6bNKH7fD0w6FtV-27">
          <mxGeometry y="85" width="230" height="26" as="geometry" />
        </mxCell>
        <mxCell id="h9xLMf6bNKH7fD0w6FtV-74" value="purchaseDateTime:&amp;nbsp;&lt;i style=&quot;color: light-dark(rgb(0, 0, 0), rgb(255, 255, 255)); background-color: transparent;&quot;&gt;LocalDateTime&lt;/i&gt;" style="text;strokeColor=none;fillColor=none;align=left;verticalAlign=top;spacingLeft=4;spacingRight=4;overflow=hidden;rotatable=0;points=[[0,0.5],[1,0.5]];portConstraint=eastwest;whiteSpace=wrap;html=1;" vertex="1" parent="h9xLMf6bNKH7fD0w6FtV-27">
          <mxGeometry y="111" width="230" height="26" as="geometry" />
        </mxCell>
        <mxCell id="h9xLMf6bNKH7fD0w6FtV-32" value="TicketType" style="swimlane;fontStyle=1;align=center;verticalAlign=middle;childLayout=stackLayout;horizontal=1;startSize=29;horizontalStack=0;resizeParent=1;resizeParentMax=0;resizeLast=0;collapsible=0;marginBottom=0;html=1;whiteSpace=wrap;" vertex="1" parent="1">
          <mxGeometry x="75" y="610" width="140" height="133" as="geometry" />
        </mxCell>
        <mxCell id="h9xLMf6bNKH7fD0w6FtV-89" value="id:&amp;nbsp;&lt;i&gt;UUID&lt;/i&gt;" style="text;strokeColor=none;fillColor=none;align=left;verticalAlign=top;spacingLeft=4;spacingRight=4;overflow=hidden;rotatable=0;points=[[0,0.5],[1,0.5]];portConstraint=eastwest;whiteSpace=wrap;html=1;" vertex="1" parent="h9xLMf6bNKH7fD0w6FtV-32">
          <mxGeometry y="29" width="140" height="26" as="geometry" />
        </mxCell>
        <mxCell id="h9xLMf6bNKH7fD0w6FtV-90" value="&lt;span style=&quot;text-align: center;&quot;&gt;name: &lt;i&gt;String&lt;/i&gt;&lt;/span&gt;" style="text;strokeColor=none;fillColor=none;align=left;verticalAlign=top;spacingLeft=4;spacingRight=4;overflow=hidden;rotatable=0;points=[[0,0.5],[1,0.5]];portConstraint=eastwest;whiteSpace=wrap;html=1;" vertex="1" parent="h9xLMf6bNKH7fD0w6FtV-32">
          <mxGeometry y="55" width="140" height="26" as="geometry" />
        </mxCell>
        <mxCell id="h9xLMf6bNKH7fD0w6FtV-91" value="totalAvailable: &lt;i&gt;Integer&lt;/i&gt;" style="text;strokeColor=none;fillColor=none;align=left;verticalAlign=top;spacingLeft=4;spacingRight=4;overflow=hidden;rotatable=0;points=[[0,0.5],[1,0.5]];portConstraint=eastwest;whiteSpace=wrap;html=1;" vertex="1" parent="h9xLMf6bNKH7fD0w6FtV-32">
          <mxGeometry y="81" width="140" height="26" as="geometry" />
        </mxCell>
        <mxCell id="h9xLMf6bNKH7fD0w6FtV-92" value="price: &lt;i&gt;Double&lt;/i&gt;" style="text;strokeColor=none;fillColor=none;align=left;verticalAlign=top;spacingLeft=4;spacingRight=4;overflow=hidden;rotatable=0;points=[[0,0.5],[1,0.5]];portConstraint=eastwest;whiteSpace=wrap;html=1;" vertex="1" parent="h9xLMf6bNKH7fD0w6FtV-32">
          <mxGeometry y="107" width="140" height="26" as="geometry" />
        </mxCell>
        <mxCell id="h9xLMf6bNKH7fD0w6FtV-35" value="QR Code" style="swimlane;fontStyle=1;align=center;verticalAlign=middle;childLayout=stackLayout;horizontal=1;startSize=29;horizontalStack=0;resizeParent=1;resizeParentMax=0;resizeLast=0;collapsible=0;marginBottom=0;html=1;whiteSpace=wrap;" vertex="1" parent="1">
          <mxGeometry x="540" y="833" width="230" height="107" as="geometry" />
        </mxCell>
        <mxCell id="h9xLMf6bNKH7fD0w6FtV-82" value="&lt;span style=&quot;text-align: center;&quot;&gt;id: &lt;i&gt;UUID&lt;/i&gt;&lt;/span&gt;" style="text;strokeColor=none;fillColor=none;align=left;verticalAlign=top;spacingLeft=4;spacingRight=4;overflow=hidden;rotatable=0;points=[[0,0.5],[1,0.5]];portConstraint=eastwest;whiteSpace=wrap;html=1;" vertex="1" parent="h9xLMf6bNKH7fD0w6FtV-35">
          <mxGeometry y="29" width="230" height="26" as="geometry" />
        </mxCell>
        <mxCell id="h9xLMf6bNKH7fD0w6FtV-79" value="&lt;span style=&quot;text-align: center;&quot;&gt;generatedDateTime: &lt;i&gt;LocalDateTime&lt;/i&gt;&lt;/span&gt;" style="text;strokeColor=none;fillColor=none;align=left;verticalAlign=top;spacingLeft=4;spacingRight=4;overflow=hidden;rotatable=0;points=[[0,0.5],[1,0.5]];portConstraint=eastwest;whiteSpace=wrap;html=1;" vertex="1" parent="h9xLMf6bNKH7fD0w6FtV-35">
          <mxGeometry y="55" width="230" height="26" as="geometry" />
        </mxCell>
        <mxCell id="h9xLMf6bNKH7fD0w6FtV-83" value="&lt;span style=&quot;text-align: center;&quot;&gt;status: &lt;i&gt;QrCodeStatusEnum&lt;/i&gt;&lt;/span&gt;" style="text;strokeColor=none;fillColor=none;align=left;verticalAlign=top;spacingLeft=4;spacingRight=4;overflow=hidden;rotatable=0;points=[[0,0.5],[1,0.5]];portConstraint=eastwest;whiteSpace=wrap;html=1;" vertex="1" parent="h9xLMf6bNKH7fD0w6FtV-35">
          <mxGeometry y="81" width="230" height="26" as="geometry" />
        </mxCell>
        <mxCell id="h9xLMf6bNKH7fD0w6FtV-38" style="edgeStyle=orthogonalEdgeStyle;rounded=0;orthogonalLoop=1;jettySize=auto;html=1;entryX=-0.021;entryY=0.407;entryDx=0;entryDy=0;entryPerimeter=0;" edge="1" parent="1" source="h9xLMf6bNKH7fD0w6FtV-32">
          <mxGeometry relative="1" as="geometry">
            <mxPoint x="345.16999999999985" y="661.617" as="targetPoint" />
            <Array as="points">
              <mxPoint x="110" y="662" />
              <mxPoint x="320" y="662" />
            </Array>
          </mxGeometry>
        </mxCell>
        <mxCell id="h9xLMf6bNKH7fD0w6FtV-39" value="has a" style="edgeLabel;html=1;align=center;verticalAlign=middle;resizable=0;points=[];fontSize=13;" vertex="1" connectable="0" parent="h9xLMf6bNKH7fD0w6FtV-38">
          <mxGeometry x="0.0228" y="-1" relative="1" as="geometry">
            <mxPoint as="offset" />
          </mxGeometry>
        </mxCell>
        <mxCell id="h9xLMf6bNKH7fD0w6FtV-69" value="1" style="edgeLabel;html=1;align=center;verticalAlign=middle;resizable=0;points=[];" vertex="1" connectable="0" parent="h9xLMf6bNKH7fD0w6FtV-38">
          <mxGeometry x="-0.8972" relative="1" as="geometry">
            <mxPoint as="offset" />
          </mxGeometry>
        </mxCell>
        <mxCell id="h9xLMf6bNKH7fD0w6FtV-70" value="0..*" style="edgeLabel;html=1;align=center;verticalAlign=middle;resizable=0;points=[];" vertex="1" connectable="0" parent="h9xLMf6bNKH7fD0w6FtV-38">
          <mxGeometry x="0.8549" y="-1" relative="1" as="geometry">
            <mxPoint y="-11" as="offset" />
          </mxGeometry>
        </mxCell>
        <mxCell id="h9xLMf6bNKH7fD0w6FtV-44" value="TicketValidation" style="swimlane;fontStyle=1;align=center;verticalAlign=middle;childLayout=stackLayout;horizontal=1;startSize=29;horizontalStack=0;resizeParent=1;resizeParentMax=0;resizeLast=0;collapsible=0;marginBottom=0;html=1;whiteSpace=wrap;" vertex="1" parent="1">
          <mxGeometry x="160" y="820" width="300" height="133" as="geometry" />
        </mxCell>
        <mxCell id="h9xLMf6bNKH7fD0w6FtV-84" value="&lt;span style=&quot;text-align: center;&quot;&gt;id: &lt;i&gt;UUID&lt;/i&gt;&lt;/span&gt;" style="text;strokeColor=none;fillColor=none;align=left;verticalAlign=top;spacingLeft=4;spacingRight=4;overflow=hidden;rotatable=0;points=[[0,0.5],[1,0.5]];portConstraint=eastwest;whiteSpace=wrap;html=1;" vertex="1" parent="h9xLMf6bNKH7fD0w6FtV-44">
          <mxGeometry y="29" width="300" height="26" as="geometry" />
        </mxCell>
        <mxCell id="h9xLMf6bNKH7fD0w6FtV-86" value="&lt;span style=&quot;text-align: center;&quot;&gt;status: &lt;i&gt;TicketValidationEnum&lt;/i&gt;&lt;/span&gt;" style="text;strokeColor=none;fillColor=none;align=left;verticalAlign=top;spacingLeft=4;spacingRight=4;overflow=hidden;rotatable=0;points=[[0,0.5],[1,0.5]];portConstraint=eastwest;whiteSpace=wrap;html=1;" vertex="1" parent="h9xLMf6bNKH7fD0w6FtV-44">
          <mxGeometry y="55" width="300" height="26" as="geometry" />
        </mxCell>
        <mxCell id="h9xLMf6bNKH7fD0w6FtV-88" value="&lt;div style=&quot;text-align: center;&quot;&gt;validationDateTime: &lt;i&gt;LocalDateTime&lt;/i&gt;&lt;/div&gt;&lt;div&gt;&lt;br&gt;&lt;/div&gt;" style="text;strokeColor=none;fillColor=none;align=left;verticalAlign=top;spacingLeft=4;spacingRight=4;overflow=hidden;rotatable=0;points=[[0,0.5],[1,0.5]];portConstraint=eastwest;whiteSpace=wrap;html=1;" vertex="1" parent="h9xLMf6bNKH7fD0w6FtV-44">
          <mxGeometry y="81" width="300" height="26" as="geometry" />
        </mxCell>
        <mxCell id="h9xLMf6bNKH7fD0w6FtV-87" value="&lt;span style=&quot;text-align: center;&quot;&gt;validationMethod: &lt;i&gt;TicketValidationMethodEnum&lt;/i&gt;&lt;/span&gt;" style="text;strokeColor=none;fillColor=none;align=left;verticalAlign=top;spacingLeft=4;spacingRight=4;overflow=hidden;rotatable=0;points=[[0,0.5],[1,0.5]];portConstraint=eastwest;whiteSpace=wrap;html=1;" vertex="1" parent="h9xLMf6bNKH7fD0w6FtV-44">
          <mxGeometry y="107" width="300" height="26" as="geometry" />
        </mxCell>
        <mxCell id="h9xLMf6bNKH7fD0w6FtV-42" style="edgeStyle=orthogonalEdgeStyle;rounded=0;orthogonalLoop=1;jettySize=auto;html=1;exitX=1.004;exitY=0.327;exitDx=0;exitDy=0;exitPerimeter=0;" edge="1" parent="1" target="h9xLMf6bNKH7fD0w6FtV-35">
          <mxGeometry relative="1" as="geometry">
            <mxPoint x="580.9200000000001" y="659.137" as="sourcePoint" />
          </mxGeometry>
        </mxCell>
        <mxCell id="h9xLMf6bNKH7fD0w6FtV-43" value="has a" style="edgeLabel;html=1;align=center;verticalAlign=middle;resizable=0;points=[];fontSize=13;" vertex="1" connectable="0" parent="h9xLMf6bNKH7fD0w6FtV-42">
          <mxGeometry x="0.0329" relative="1" as="geometry">
            <mxPoint as="offset" />
          </mxGeometry>
        </mxCell>
        <mxCell id="h9xLMf6bNKH7fD0w6FtV-58" value="1..*" style="edgeLabel;html=1;align=center;verticalAlign=middle;resizable=0;points=[];" vertex="1" connectable="0" parent="h9xLMf6bNKH7fD0w6FtV-42">
          <mxGeometry x="0.8578" relative="1" as="geometry">
            <mxPoint x="10" y="1" as="offset" />
          </mxGeometry>
        </mxCell>
        <mxCell id="h9xLMf6bNKH7fD0w6FtV-59" value="1" style="edgeLabel;html=1;align=center;verticalAlign=middle;resizable=0;points=[];" vertex="1" connectable="0" parent="h9xLMf6bNKH7fD0w6FtV-42">
          <mxGeometry x="-0.9422" y="1" relative="1" as="geometry">
            <mxPoint y="-4" as="offset" />
          </mxGeometry>
        </mxCell>
      </root>
    </mxGraphModel>
  </diagram>
</mxfile>
